<?xml version="1.0" encoding="iso-8859-1"?>
<!-- Generator: Adobe Illustrator 19.0.0, SVG Export Plug-In . SVG Version: 6.00 Build 0)  -->
<svg version="1.1" id="Layer_1" xmlns="http://www.w3.org/2000/svg" xmlns:xlink="http://www.w3.org/1999/xlink" x="0px" y="0px"
	 viewBox="0 0 512 512" style="enable-background:new 0 0 512 512;" xml:space="preserve">
<path style="fill:#4a5a67;" d="M0,256.006C0,397.402,114.606,512.004,255.996,512C397.394,512.004,512,397.402,512,256.006
	C512.009,114.61,397.394,0,255.996,0C114.606,0,0,114.614,0,256.006z"/>
<path style="fill:#444a54;" d="M512,256.005c0.001-8.217-0.426-16.333-1.182-24.352c-0.306-0.367-85.885-85.974-86.314-86.314
	c-1.298-1.638-3.217-2.756-5.47-2.756H213.47c-3.915,0-7.089,3.173-7.089,7.089c0,2.252,1.117,4.172,2.755,5.47
	c0.34,0.429,0.708,0.798,1.137,1.137c0.34,0.43,0.708,0.798,1.138,1.138c0.34,0.429,90.565,90.655,90.995,90.995
	c0.125,0.158,0.198,0.353,0.337,0.499H287.69c-0.054-0.053-0.122-0.093-0.176-0.145c-0.374-0.388-0.75-0.764-1.137-1.137
	c-0.374-0.388-127.005-127.019-127.393-127.393c-7.742-8.039-18.558-13.093-30.575-13.093c-23.453,0-42.53,19.078-42.53,42.531
	c0,12.016,5.055,22.832,13.093,30.574c0.374,0.388,0.75,0.763,1.137,1.137c0.374,0.388,32.194,32.299,32.395,32.498
	c-1.367-0.133-2.693-0.414-4.096-0.414c-23.453,0-42.53,19.078-42.53,42.531c0,12.016,5.055,22.832,13.093,30.574
	c0.373,0.388,0.749,0.764,1.137,1.137c0.373,0.388,32.194,32.299,32.396,32.499c-1.369-0.133-2.694-0.414-4.096-0.414
	c-23.453,0-42.53,19.077-42.53,42.53c0,12.016,5.055,22.833,13.093,30.574c0.373,0.388,0.75,0.764,1.137,1.137
	c0.373,0.387,0.748,0.763,1.136,1.136c0.374,0.388,112.22,112.235,112.608,112.608c0.282,0.293,0.571,0.576,0.859,0.859
	c13.444,2.18,27.225,3.359,41.285,3.359C397.394,512.004,512,397.401,512,256.005z"/>
<g>
	<path style="fill:#F4F6F9;" d="M213.469,156.762h205.566c3.915,0,7.088-3.174,7.088-7.088c0-3.915-3.174-7.088-7.088-7.088H213.469
		c-3.915,0-7.088,3.174-7.088,7.088C206.381,153.587,209.554,156.762,213.469,156.762z"/>
	<path style="fill:#F4F6F9;" d="M419.035,248.912H213.469c-3.915,0-7.088,3.174-7.088,7.088c0,3.915,3.174,7.088,7.088,7.088
		h205.566c3.915,0,7.088-3.174,7.088-7.088C426.123,252.085,422.949,248.912,419.035,248.912z"/>
	<path style="fill:#F4F6F9;" d="M419.035,355.238H213.469c-3.915,0-7.088,3.173-7.088,7.088s3.174,7.088,7.088,7.088h205.566
		c3.915,0,7.088-3.174,7.088-7.088S422.949,355.238,419.035,355.238z"/>
	<path style="fill:#F4F6F9;" d="M128.407,107.142c-23.453,0-42.531,19.078-42.531,42.531s19.078,42.531,42.531,42.531
		s42.531-19.078,42.531-42.531S151.86,107.142,128.407,107.142z M128.407,178.027c-15.634,0-28.354-12.72-28.354-28.354
		s12.72-28.354,28.354-28.354s28.354,12.72,28.354,28.354C156.762,165.307,144.042,178.027,128.407,178.027z"/>
	<path style="fill:#F4F6F9;" d="M128.407,213.469c-23.453,0-42.531,19.078-42.531,42.531c0,23.453,19.078,42.531,42.531,42.531
		s42.531-19.078,42.531-42.531S151.86,213.469,128.407,213.469z M128.407,284.354c-15.634,0-28.354-12.72-28.354-28.354
		c0-15.634,12.72-28.354,28.354-28.354s28.354,12.72,28.354,28.354C156.762,271.634,144.042,284.354,128.407,284.354z"/>
	<path style="fill:#F4F6F9;" d="M128.407,319.796c-23.453,0-42.531,19.078-42.531,42.531s19.078,42.531,42.531,42.531
		s42.531-19.078,42.531-42.531C170.939,338.874,151.86,319.796,128.407,319.796z M128.407,390.681
		c-15.634,0-28.354-12.72-28.354-28.354s12.72-28.354,28.354-28.354s28.354,12.72,28.354,28.354S144.042,390.681,128.407,390.681z"
		/>
</g>
<g>
</g>
<g>
</g>
<g>
</g>
<g>
</g>
<g>
</g>
<g>
</g>
<g>
</g>
<g>
</g>
<g>
</g>
<g>
</g>
<g>
</g>
<g>
</g>
<g>
</g>
<g>
</g>
<g>
</g>
</svg>
